<?xml version="1.0" encoding="UTF-8"?>
<svg id="locate" xmlns="http://www.w3.org/2000/svg" viewBox="0 0 420.51 651.34">
  <path d="M418.51,532.48c0,64.54-93.24,116.86-208.26,116.86S2,597.02,2,532.48s93.24-116.86,208.26-116.86,208.26,52.32,208.26,116.86ZM208.98,438.87c-93.76,0-169.77,40.09-169.77,89.53s76.01,89.53,169.77,89.53,169.77-40.09,169.77-89.53-76.01-89.53-169.77-89.53ZM208.98,459.8c-78.99,0-143.02,30.72-143.02,68.6s64.03,68.6,143.02,68.6,143.02-30.72,143.02-68.6-64.03-68.6-143.02-68.6Z" style="fill: #fff; stroke: #49a0d9; stroke-miterlimit: 10; stroke-width: 4px;"/>
  <path d="M308.38,206.75l-99.41,342.59s-18.6,2.33-97.02-340.41M208.98.5C133.2.5,71.77,55.16,71.77,122.59c0,33.72,15.36,64.24,40.19,86.33,24.83,22.09,59.13,35.76,97.02,35.76s74.41-14.57,99.41-37.94c23.42-21.9,37.8-51.54,37.8-84.16C346.19,55.16,284.76.5,208.98.5Z" style="fill: #e3c2dc; stroke: #231815; stroke-miterlimit: 10;"/>
</svg>