<?xml version="1.0" encoding="UTF-8"?>
<svg id="_图层_1" data-name="图层 1" xmlns="http://www.w3.org/2000/svg" viewBox="0 0 203.94 209.13">
  <defs>
    <style>
      .cls-1 {
        fill: #000;
      }

      .cls-1, .cls-2 {
        stroke-width: 0px;
      }

      .cls-2 {
        fill: #fff;
      }
    </style>
  </defs>
  <g>
    <path class="cls-2" d="M187.81,151.33c-25.1,42.21-82.11,58.87-126.01,36.6-31.42-15.17-53.03-47.65-54.54-82.61C3.54-.87,144.5-36.96,192.43,57.65"/>
    <path class="cls-1" d="M199.85,158.48c-25.81,41.66-80.98,61-127.14,45.13-22.37-7.65-42.05-22.63-55.02-42.39C4.74,141.96-1.59,118.29.34,95.15,4.1,35.06,58.73-7.3,117.55,1.05c32.86,4.28,61.28,26.74,74.87,56.6-14.83-28.34-43.37-48.97-75.48-51.38C59.88,1.44,10.72,45.4,14.45,103.39c.95,18.45,8.23,36.37,19.78,50.71,17.42,21.54,45.14,34.45,72.92,32.26,18.77-1.24,37.27-8.74,51.39-21.01,6.98-6.08,12.83-13.27,17.23-21.18,0,0,24.07,14.31,24.07,14.31h0Z"/>
  </g>
  <path class="cls-1" d="M194.91,134.99c-10.47,5.84-21.59,9.87-33.35,12.2-6.31,1.25-3.64,10.89,2.66,9.64,7.48-1.48,14.75-3.69,21.77-6.54-1.56,1.89-1.55,5.01.3,6.7,2.02,1.86,5.06,1.95,7.07,0,.2-.19.38-.4.58-.6v24.21c0,6.43,10,6.45,10,0v-42.62c0-5.19-6.52-6.2-9.03-3Z"/>
</svg>