<?xml version="1.0" encoding="UTF-8"?>
<svg id="_图层_1" data-name="图层 1" xmlns="http://www.w3.org/2000/svg" viewBox="0 0 197.21 247.21">
  <defs>
    <style>
      .cls-1 {
        fill: #fff;
        stroke: #000;
        stroke-miterlimit: 10;
        stroke-width: 5px;
      }
    </style>
  </defs>
  <path class="cls-1" d="M137.34,215.61H16.02c-7.47,0-13.52-6.06-13.52-13.52V16.02c0-7.47,6.06-13.52,13.52-13.52h121.31c7.47,0,13.52,6.06,13.52,13.52v186.07c0,7.47-6.06,13.52-13.52,13.52ZM34.47,33.65h76.23M34.47,66.43h76.23M34.47,99.22h76.23M34.47,132.01h76.23M34.47,164.8h76.23"/>
  <path class="cls-1" d="M181.19,244.71H59.88c-7.47,0-13.52-6.06-13.52-13.52V45.12c0-7.47,6.06-13.52,13.52-13.52h121.31c7.47,0,13.52,6.06,13.52,13.52v186.07c0,7.47-6.06,13.52-13.52,13.52ZM78.32,62.75h76.23M78.32,95.53h76.23M78.32,128.32h76.23M78.32,161.11h76.23M78.32,193.89h76.23"/>
</svg>