<?xml version="1.0" encoding="UTF-8"?>
<svg id="_图层_1" data-name="图层 1" xmlns="http://www.w3.org/2000/svg" viewBox="0 0 239.99 233.32">
  <defs>
    <style>
      .cls-1 {
        fill: #fff;
        stroke: #000;
        stroke-miterlimit: 10;
      }
    </style>
  </defs>
  <rect class="cls-1" x="44.02" y="16.99" width="34.43" height="40.16" rx="13.93" ry="13.93" transform="translate(-10.22 32.82) rotate(-27.79)"/>
  <rect class="cls-1" x="154.67" y="178.88" width="34.43" height="40.16" rx="13.93" ry="13.93" transform="translate(-72.94 103.09) rotate(-27.79)"/>
  <rect class="cls-1" x="16.83" y="148.67" width="34.43" height="40.16" rx="10.69" ry="10.69" transform="translate(144.3 36.55) rotate(51.23)"/>
  <rect class="cls-1" x="184.18" y="37.89" width="34.43" height="40.16" rx="10.69" ry="10.69" transform="translate(120.5 -135.35) rotate(51.23)"/>
  <rect class="cls-1" x="201.4" y="118.29" width="34.43" height="40.16" rx="11.38" ry="11.38" transform="translate(389.06 -56.27) rotate(98.88)"/>
  <rect class="cls-1" x="4.26" y="79.86" width="34.43" height="40.16" rx="10.69" ry="10.69" transform="translate(123.54 94.15) rotate(98.88)"/>
  <rect class="cls-1" x="79.26" y="191.17" width="34.43" height="40.16" rx="10.69" ry="10.69" transform="translate(65.09 -18.86) rotate(16.78)"/>
  <rect class="cls-1" x="124.35" y="1.99" width="34.43" height="40.16" rx="10.69" ry="10.69" transform="translate(12.4 -39.92) rotate(16.78)"/>
  <circle class="cls-1" cx="120.66" cy="116.99" r="89.75"/>
  <circle class="cls-1" cx="120.66" cy="116.99" r="47.54"/>
</svg>